# Exported from ProBuilder
# http://www.procore3d.com/probuilder
# 2018/6/26 18:24:10

mtllib ./Cylinder.mtl
o Cylinder

g Cylinder
v 0.5 0 0
v 0.5 1 0
v 0.3535534 0 0.3535534
v 0.3535534 1 0.3535534
v 0.3535534 0 0.3535534
v 0.3535534 1 0.3535534
v -2.185569E-08 0 0.5
v -2.185569E-08 1 0.5
v -2.185569E-08 0 0.5
v -2.185569E-08 1 0.5
v -0.3535534 0 0.3535534
v -0.3535534 1 0.3535534
v -0.3535534 0 0.3535534
v -0.3535534 1 0.3535534
v -0.5 0 -4.371139E-08
v -0.5 1 -4.371139E-08
v -0.5 0 -4.371139E-08
v -0.5 1 -4.371139E-08
v -0.3535534 0 -0.3535534
v -0.3535534 1 -0.3535534
v -0.3535534 0 -0.3535534
v -0.3535534 1 -0.3535534
v 5.96244E-09 0 -0.5
v 5.96244E-09 1 -0.5
v 5.96244E-09 0 -0.5
v 5.96244E-09 1 -0.5
v 0.3535533 0 -0.3535534
v 0.3535533 1 -0.3535534
v 0.3535533 0 -0.3535534
v 0.3535533 1 -0.3535534
v 0.5 0 0
v 0.5 1 0
v 0.3535534 0 0.3535534
v 0 0 0
v 0.5 0 0
v -2.185569E-08 0 0.5
v -0.3535534 0 0.3535534
v -0.5 0 -4.371139E-08
v -0.3535534 0 -0.3535534
v 5.96244E-09 0 -0.5
v 0.3535533 0 -0.3535534
v 0.5 1 0
v 0 1 0
v 0.3535534 1 0.3535534
v -2.185569E-08 1 0.5
v -0.3535534 1 0.3535534
v -0.5 1 -4.371139E-08
v -0.3535534 1 -0.3535534
v 5.96244E-09 1 -0.5
v 0.3535533 1 -0.3535534

vn 0.9238795 0 -2.980232E-08
vn 0.9238795 0 -2.980232E-08
vn 0.6532815 0 0.6532815
vn 0.6532815 0 0.6532815
vn 0.6532815 0 0.6532815
vn 0.6532815 0 0.6532815
vn -2.980232E-08 0 0.9238796
vn -2.980232E-08 0 0.9238796
vn -2.980232E-08 0 0.9238796
vn -2.980232E-08 0 0.9238796
vn -0.6532815 0 0.6532815
vn -0.6532815 0 0.6532815
vn -0.6532815 0 0.6532815
vn -0.6532815 0 0.6532815
vn -0.9238795 0 0
vn -0.9238795 0 0
vn -0.9238795 0 0
vn -0.9238795 0 0
vn -0.6532815 0 -0.6532815
vn -0.6532815 0 -0.6532815
vn -0.6532815 0 -0.6532815
vn -0.6532815 0 -0.6532815
vn -8.940697E-08 0 -0.9238795
vn -8.940697E-08 0 -0.9238795
vn -8.940697E-08 0 -0.9238795
vn -8.940697E-08 0 -0.9238795
vn 0.6532814 0 -0.6532815
vn 0.6532814 0 -0.6532815
vn 0.6532814 0 -0.6532815
vn 0.6532814 0 -0.6532815
vn 0.9238795 0 -2.980232E-08
vn 0.9238795 0 -2.980232E-08
vn 0 -0.9999999 0
vn 0 -0.9999999 0
vn 0 -0.9999999 0
vn 0 -0.9999999 0
vn 0 -0.9999999 0
vn 0 -0.9999999 0
vn 0 -0.9999999 0
vn 0 -0.9999999 0
vn 0 -0.9999999 0
vn 0 0.9999999 0
vn 0 0.9999999 0
vn 0 0.9999999 0
vn 0 0.9999999 0
vn 0 0.9999999 0
vn 0 0.9999999 0
vn 0 0.9999999 0
vn 0 0.9999999 0
vn 0 0.9999999 0

vt -0.1913417 0
vt -0.1913417 1
vt 0.1913417 0
vt 0.1913417 1
vt -0.1913417 0
vt -0.1913417 1
vt 0.1913417 0
vt 0.1913417 1
vt -0.1913417 0
vt -0.1913417 1
vt 0.1913417 0
vt 0.1913417 1
vt -0.1913417 0
vt -0.1913417 1
vt 0.1913418 0
vt 0.1913418 1
vt -0.1913417 0
vt -0.1913417 1
vt 0.1913417 0
vt 0.1913417 1
vt -0.1913417 0
vt -0.1913417 1
vt 0.1913418 0
vt 0.1913418 1
vt -0.1913417 0
vt -0.1913417 1
vt 0.1913417 0
vt 0.1913417 1
vt -0.1913418 0
vt -0.1913418 1
vt 0.1913418 0
vt 0.1913418 1
vt -0.3535534 0.3535534
vt 0 0
vt -0.5 0
vt 2.185569E-08 0.5
vt 0.3535534 0.3535534
vt 0.5 -4.371139E-08
vt 0.3535534 -0.3535534
vt -5.96244E-09 -0.5
vt -0.3535533 -0.3535534
vt 0.5 0
vt 0 0
vt 0.3535534 0.3535534
vt -2.185569E-08 0.5
vt -0.3535534 0.3535534
vt -0.5 -4.371139E-08
vt -0.3535534 -0.3535534
vt 5.96244E-09 -0.5
vt 0.3535533 -0.3535534

g Cylinder
usemtl Default_Prototype
f 1/1/1 2/2/2 3/3/3
f 2/2/2 4/4/4 3/3/3
f 5/5/5 6/6/6 7/7/7
f 6/6/6 8/8/8 7/7/7
f 9/9/9 10/10/10 11/11/11
f 10/10/10 12/12/12 11/11/11
f 13/13/13 14/14/14 15/15/15
f 14/14/14 16/16/16 15/15/15
f 17/17/17 18/18/18 19/19/19
f 18/18/18 20/20/20 19/19/19
f 21/21/21 22/22/22 23/23/23
f 22/22/22 24/24/24 23/23/23
f 25/25/25 26/26/26 27/27/27
f 26/26/26 28/28/28 27/27/27
f 29/29/29 30/30/30 31/31/31
f 30/30/30 32/32/32 31/31/31
f 33/33/33 34/34/34 35/35/35
f 36/36/36 34/34/34 33/33/33
f 37/37/37 34/34/34 36/36/36
f 38/38/38 34/34/34 37/37/37
f 39/39/39 34/34/34 38/38/38
f 40/40/40 34/34/34 39/39/39
f 41/41/41 34/34/34 40/40/40
f 35/35/35 34/34/34 41/41/41
f 42/42/42 43/43/43 44/44/44
f 44/44/44 43/43/43 45/45/45
f 45/45/45 43/43/43 46/46/46
f 46/46/46 43/43/43 47/47/47
f 47/47/47 43/43/43 48/48/48
f 48/48/48 43/43/43 49/49/49
f 49/49/49 43/43/43 50/50/50
f 50/50/50 43/43/43 42/42/42

