# Exported from ProBuilder
# http://www.procore3d.com/probuilder
# 2018/6/26 18:43:21

mtllib ./Boat.mtl
o Boat

g Boat
v 0.7026502 0.3750343 -1.210625
v 1.788139E-07 0.3750343 -3.357299
v -0.7026499 0.3750343 -1.210625
v -0.5812828 -0.09455609 -0.5304587
v 0.01674229 -0.03711343 -2.357492
v 0.6147674 -0.09455609 -0.5304587
v 0.04201669 -0.3750342 3.357301
v 0.6147674 -0.09455609 3.357301
v -0.5812828 -0.09455609 3.357301
v -0.7026499 0.3750343 -1.210625
v 0.7026502 0.3750343 3.357301
v 0.7026502 0.3750343 -1.210625
v -0.7026499 0.3750343 3.357301
v -0.7026499 0.3750343 -1.210625
v 1.788139E-07 0.3750343 -3.357299
v 0.01674229 -0.03711343 -2.357492
v -0.5812828 -0.09455609 -0.5304587
v -0.7026499 0.3750343 3.357301
v -0.7026499 0.3750343 -1.210625
v -0.5812828 -0.09455609 -0.5304587
v -0.5812828 -0.09455609 3.357301
v 0.7026502 0.3750343 -1.210625
v 0.7026502 0.3750343 3.357301
v 0.6147674 -0.09455609 3.357301
v 0.6147674 -0.09455609 -0.5304587
v 0.7026502 0.3750343 3.357301
v -0.7026499 0.3750343 3.357301
v -0.5812828 -0.09455609 3.357301
v 0.6147674 -0.09455609 3.357301
v 1.788139E-07 0.3750343 -3.357299
v 0.7026502 0.3750343 -1.210625
v 0.6147674 -0.09455609 -0.5304587
v 0.01674229 -0.03711343 -2.357492
v 0.6147674 -0.09455609 -0.5304587
v -0.5812828 -0.09455609 3.357301
v -0.5812828 -0.09455609 -0.5304587
v 0.6147674 -0.09455609 3.357301
v 0.04201669 -0.3750342 3.357301
v -0.5812828 -0.09455609 3.357301
v -0.5812828 -0.09455609 -0.5304587
v 0.04201669 -0.3750342 0.5895145
v 0.6147674 -0.09455609 -0.5304587
v 0.04201669 -0.3750342 0.5895145
v 0.04201669 -0.3750342 -0.7111931
v 0.01674229 -0.03711343 -2.357492
v 0.04201669 -0.3750342 -0.7111931
v 0.04201669 -0.3750342 0.5895145
v -0.5812828 -0.09455609 -0.5304587
v 0.01674229 -0.03711343 -2.357492
v 0.6147674 -0.09455609 3.357301
v 0.04201669 -0.3750342 3.357301
v 0.04201669 -0.3750342 0.5895145
v 0.6147674 -0.09455609 -0.5304587

vn 0 1 0
vn 0 1 0
vn 0 1 0
vn 0 -0.9995061 -0.03142487
vn 0 -0.9995061 -0.03142487
vn 0 -0.9995061 -0.03142487
vn 0 0 1
vn 0 0 1
vn 0 0 1
vn 0 0.9999999 0
vn 0 0.9999999 0
vn 0 0.9999999 0
vn 0 0.9999999 0
vn -0.754063 -0.6050411 -0.2555664
vn -0.7445745 -0.6214595 -0.2437144
vn -0.754063 -0.6050411 -0.2555664
vn -0.7641431 -0.5864823 -0.2685588
vn -0.9681863 -0.2502307 0
vn -0.9681863 -0.2502307 0
vn -0.9681863 -0.2502307 0
vn -0.9681863 -0.2502307 0
vn 0.9829349 -0.1839541 0
vn 0.9829348 -0.1839541 0
vn 0.9829349 -0.1839541 0
vn 0.9829348 -0.1839541 0
vn 0 0 1
vn 0 0 0.9999999
vn 0 0 1
vn 0 0 1
vn 0.7811847 -0.5657912 -0.2638765
vn 0.804678 -0.5320906 -0.2633875
vn 0.7811847 -0.5657912 -0.2638765
vn 0.7474749 -0.609651 -0.2638314
vn 0 -1 0
vn 0 -1 0
vn 0 -1 0
vn 0 -1 0
vn -0.4103566 -0.9119251 0
vn -0.4103566 -0.9119252 0
vn -0.4103566 -0.9119251 0
vn -0.4103566 -0.9119251 0
vn 0.4638669 -0.8796787 -0.1048473
vn 0.4398006 -0.8980955 0
vn 0.4638669 -0.8796787 -0.1048473
vn 0.4784488 -0.8587062 -0.1836041
vn -0.4320872 -0.8963729 -0.09907758
vn -0.4103566 -0.9119252 0
vn -0.4320872 -0.8963729 -0.09907758
vn -0.4455221 -0.8783095 -0.1734428
vn 0.4398006 -0.8980954 0
vn 0.4398006 -0.8980954 0
vn 0.4398006 -0.8980954 0
vn 0.4398006 -0.8980954 0

vt 0 179.8396
vt 27.66339 264.3543
vt 55.32677 179.8396
vt -50.54854 153.0614
vt -27.00425 224.9919
vt -3.459952 153.0614
vt -16.76173 3.143701
vt 3.459952 19.59137
vt 50.54854 19.59137
vt 55.32677 179.8396
vt 0 0
vt 0 179.8396
vt 55.32677 0
vt 153.7056 89.5847
vt 242.6325 89.5847
vt 205.4281 48.72942
vt 129.7424 48.72942
vt -3.840747E-17 64.69471
vt 179.8396 64.69471
vt 153.0614 25.62664
vt -3.509045E-17 25.62664
vt -179.8396 58.13515
vt 7.70372E-34 58.13515
vt -3.602813E-18 19.20632
vt -153.0614 19.20632
vt 0 58.36614
vt 55.32677 58.36614
vt 50.54854 19.59137
vt 3.459952 19.59137
vt -259.8436 71.96796
vt -170.9166 71.96796
vt -146.5434 31.48993
vt -222.2291 31.48993
vt -3.459952 153.0614
vt -50.54854 0
vt -50.54854 153.0614
vt -3.459952 0
vt -16.76173 3.143701
vt 5.88626E-17 42.42468
vt 153.0614 42.42468
vt -26.00919 108.968
vt -146.5434 47.59615
vt -26.00919 108.968
vt -160.3205 24.22339
vt -222.2291 47.59615
vt 144.1386 66.41792
vt -26.00919 108.968
vt 129.7424 91.369
vt 205.4281 91.369
vt 0 16.58488
vt -16.76173 3.143701
vt -26.00919 108.968
vt -153.0614 16.58488

g Boat
usemtl FrontColor
f 1/1/1 2/2/2 3/3/3
f 4/4/4 5/5/5 6/6/6
f 7/7/7 8/8/8 9/9/9
f 10/10/10 11/11/11 12/12/12
f 10/10/10 13/13/13 11/11/11
f 14/14/14 15/15/15 16/16/16
f 14/14/14 16/16/16 17/17/17
f 18/18/18 19/19/19 20/20/20
f 18/18/18 20/20/20 21/21/21
f 22/22/22 23/23/23 24/24/24
f 22/22/22 24/24/24 25/25/25
f 26/26/26 27/27/27 28/28/28
f 26/26/26 28/28/28 29/29/29
f 30/30/30 31/31/31 32/32/32
f 30/30/30 32/32/32 33/33/33
f 34/34/34 35/35/35 36/36/36
f 34/34/34 37/37/37 35/35/35
f 38/38/38 39/39/39 40/40/40
f 38/38/38 40/40/40 41/41/41
f 42/42/42 43/43/43 44/44/44
f 42/42/42 44/44/44 45/45/45
f 46/46/46 47/47/47 48/48/48
f 46/46/46 48/48/48 49/49/49
f 50/50/50 51/51/51 52/52/52
f 50/50/50 52/52/52 53/53/53

